<svg version="1.1" id="Layer_1" xmlns:x="ns_extend;" xmlns:i="ns_ai;" xmlns:graph="ns_graphs;" xmlns="http://www.w3.org/2000/svg" xmlns:xlink="http://www.w3.org/1999/xlink" x="0px" y="0px" viewBox="0 0 311.7 50" style="enable-background:new 0 0 311.7 50;" xml:space="preserve">
 <style type="text/css">
  .st0{fill:#1260FD;}
 </style>
 <metadata>
  <sfw xmlns="ns_sfw;">
   <slices>
   </slices>
   <sliceSourceBounds bottomLeftOrigin="true" height="50" width="311.7" x="-191.7" y="0.8">
   </sliceSourceBounds>
  </sfw>
 </metadata>
 <g>
  <path class="st0" d="M82,0c-4.1,0-7.1,1.1-9.3,3.4c-2.1,2.2-3.2,5.4-3.2,9.4v2.3h-5.9v7.5h5.9v26.1h9.2V22.7h9.8v-7.5h-9.8v-2.6
		c0-1.7,0.4-3,1.3-3.8s2.2-1.3,3.9-1.3c1,0,1.9,0.1,2.8,0.3c0.8,0.2,1.6,0.5,2.3,0.9v-7c-0.8-0.5-1.7-0.9-3-1.2
		C84.8,0.1,83.4,0,82,0z">
  </path>
  <path class="st0" d="M116.7,16.4c-2.7-1.5-5.7-2.3-9.2-2.3c-3.4,0-6.4,0.8-9.1,2.3c-2.6,1.5-4.8,3.7-6.2,6.3
		c-1.5,2.7-2.2,5.8-2.2,9.3c0,3.5,0.7,6.6,2.2,9.2c1.4,2.6,3.6,4.8,6.2,6.3c2.7,1.5,5.7,2.2,9,2.2c3.4,0,6.5-0.7,9.2-2.2
		c2.6-1.5,4.8-3.6,6.3-6.3c1.5-2.7,2.2-5.8,2.2-9.2c0-3.5-0.7-6.6-2.2-9.3C121.5,20.1,119.3,17.9,116.7,16.4z M114.9,37.2
		c-0.6,1.5-1.6,2.6-2.8,3.5c-1.2,0.8-2.7,1.2-4.5,1.2c-1.7,0-3.1-0.4-4.3-1.2c-1.2-0.8-2.1-2-2.8-3.5c-0.7-1.5-1-3.2-1-5.2
		c0-2,0.3-3.7,1-5.2c0.6-1.5,1.6-2.7,2.8-3.5c1.2-0.8,2.7-1.3,4.4-1.3c1.7,0,3.2,0.4,4.5,1.3c1.2,0.8,2.2,2,2.8,3.5
		c0.6,1.5,1,3.2,1,5.2C115.8,34,115.5,35.7,114.9,37.2z">
  </path>
  <path class="st0" d="M150.8,35c0,2.1-0.6,3.8-1.7,5c-1.1,1.2-2.7,1.8-4.6,1.8c-1.9,0-3.4-0.6-4.5-1.8c-1.1-1.2-1.7-2.9-1.7-5V15.1
		h-9.1v20.5c0,2.8,0.6,5.3,1.8,7.5c1.2,2.2,3,3.9,5.3,5.1c2.3,1.2,5,1.8,8.2,1.8c3.2,0,6-0.6,8.3-1.8c2.3-1.2,4.1-2.9,5.4-5.1
		c1.2-2.2,1.8-4.7,1.8-7.5V15.2h-9.2L150.8,35z">
  </path>
  <path class="st0" d="M191.5,15.8c-1.7-1.1-3.8-1.6-6.3-1.6c-3,0-5.5,0.8-7.5,2.3c-1.4,1.1-2.5,2.5-3.3,4.1v-5.3h-9v33.6h9.1V30.7
		c0-2.7,0.6-4.9,1.9-6.4c1.3-1.6,3-2.4,5.3-2.4c2.2,0,3.8,0.6,4.7,1.9c1,1.3,1.5,3.3,1.5,5.9v19h9.1V27.7c0-2.8-0.5-5.2-1.4-7.2
		C194.6,18.4,193.3,16.9,191.5,15.8z">
  </path>
  <path class="st0" d="M252.3,16c-2.4-1.2-5.2-1.8-8.4-1.8c-2.5,0-4.7,0.3-6.8,1c-2,0.6-3.8,1.6-5.6,2.7v8c1.3-1.3,2.9-2.3,4.7-3
		c1.8-0.7,3.7-1.1,5.7-1.1c2.7,0,4.8,0.7,6.4,2.2c1.5,1.4,2.3,3.5,2.3,6.2v1.7c-0.7-0.9-1.6-1.7-2.7-2.3c-1.6-1-3.7-1.5-6.1-1.5
		c-2.4,0-4.4,0.4-6.3,1.3c-1.8,0.9-3.2,2.1-4.2,3.8c-1,1.6-1.5,3.5-1.5,5.8c0,2,0.5,3.9,1.4,5.5c0.9,1.6,2.3,3,4,3.9
		c1.7,0.9,3.7,1.4,5.9,1.4c2.6,0,4.8-0.7,6.7-2c1.2-0.8,2.2-1.9,2.8-3.2v4.2h9V29.2c0-3.1-0.6-5.8-1.8-8
		C256.5,18.9,254.7,17.2,252.3,16z M247.8,42.9c-0.9,0.5-2,0.7-3.3,0.7c-1.9,0-3.4-0.5-4.5-1.4s-1.6-2.2-1.6-3.7
		c0-1.6,0.5-2.8,1.6-3.7c1.1-0.9,2.6-1.3,4.5-1.3c1.8,0,3.3,0.5,4.4,1.4c1.1,0.9,1.7,2.1,1.7,3.6c0,0.9-0.2,1.8-0.7,2.6
		C249.4,41.8,248.7,42.4,247.8,42.9z">
  </path>
  <path class="st0" d="M310.3,20.5c-1-2-2.3-3.6-4-4.7c-1.7-1.1-3.8-1.6-6.3-1.6c-3,0-5.5,0.8-7.5,2.3c-1.4,1.1-2.5,2.5-3.3,4.1v-5.3
		h-9v33.6h9.1V30.7c0-2.7,0.6-4.9,1.9-6.4c1.3-1.6,3-2.4,5.3-2.4c2.2,0,3.8,0.6,4.7,1.9c1,1.3,1.5,3.3,1.5,5.9v19h9.1V27.7
		C311.7,24.9,311.2,22.5,310.3,20.5z">
  </path>
  <path class="st0" d="M223.8,41.9c-0.8,0.3-1.7,0.4-2.9,0.4c-1.6,0-2.8-0.4-3.7-1.3c-0.8-0.9-1.3-2.2-1.3-3.9V22.7h9.7v-7.5h-9.7
		V5.8h-9.2v9.3H200v7.5h6.8v15.6c0,2.4,0.4,4.4,1.3,6.1c0.9,1.7,2.2,3.1,3.9,4.1c1.7,1,3.8,1.5,6.3,1.5c1.8,0,3.3-0.2,4.4-0.5
		c1.2-0.4,2.4-0.9,3.4-1.6v-7.1l-0.1,0.1C225.3,41.3,224.5,41.7,223.8,41.9z">
  </path>
  <path class="st0" d="M274.4,15.2h-9.2v33.6h9.2V15.2z">
  </path>
  <path class="st0" d="M269.7,0.3c-1.1,0-2.1,0.3-3,0.9c-0.9,0.6-1.6,1.5-2,2.5c-0.4,1-0.5,2.1-0.3,3.2c0.2,1.1,0.7,2,1.5,2.8
		c0.8,0.8,1.7,1.3,2.8,1.5c1.1,0.2,2.2,0.1,3.2-0.3c1-0.4,1.9-1.1,2.5-2c0.6-0.9,0.9-2,0.9-3c0-1.5-0.6-2.8-1.6-3.9
		C272.6,0.9,271.2,0.3,269.7,0.3L269.7,0.3z">
  </path>
  <path class="st0" d="M39.3,48.8c2.5,0,4.9-1,6.6-2.7c1.8-1.8,2.7-4.1,2.7-6.6c0-2.5-1-4.9-2.7-6.6c-1.8-1.8-4.1-2.7-6.6-2.7
		c-6.6,0-11.4,4.8-13.6,13.1H23c-2.2-8.3-7.1-13.1-13.6-13.1c-2.5,0-4.9,1-6.6,2.7C1,34.6,0,37,0,39.4c0,2.5,1,4.9,2.7,6.6
		c1.8,1.8,4.1,2.7,6.6,2.7L39.3,48.8z">
  </path>
  <path class="st0" d="M39.3,5.8c-6.6,0-11.4,4.8-13.6,13.1H23C20.8,10.6,15.9,5.8,9.4,5.8c-2.5,0-4.9,1-6.6,2.7S0,12.7,0,15.2
		c0,2.5,1,4.9,2.7,6.6c1.8,1.8,4.1,2.7,6.6,2.7c6.2,0,11.4,2.9,15,8.1c3.6-5.2,8.7-8.1,15-8.1c2.5,0,4.9-1,6.6-2.7
		c1.8-1.8,2.7-4.1,2.7-6.6c0-2.5-1-4.9-2.7-6.6S41.8,5.8,39.3,5.8z">
  </path>
 </g>
</svg>